<svg xmlns="http://www.w3.org/2000/svg" width="1776" height="888" viewBox="0 0 1776 888" role="img" aria-labelledby="title desc">
  <title id="title">認真無聊</title>
  <desc id="desc">jf open 粉圓向量字標；白色咖啡杯裝著棕色咖啡，躲在無字下方並冒出熱氣。</desc>
  <defs>
    <mask id="remove-middle-dots">
      <rect width="1776" height="888" fill="white"/>
      <rect x="1018" y="544" width="108" height="76" fill="black"/>
    </mask>
  </defs>
  <rect width="1776" height="888" fill="#faf8f3"/>

  <!-- 咖啡杯與蒸氣先畫，讓它們真正躲在「無」字後面。 -->
  <g aria-hidden="true" transform="translate(-5 5) rotate(-5 1066 580)">
    <rect x="1106" y="565" width="34" height="34" rx="15" fill="#fff" stroke="#171919" stroke-width="6"/>
    <path d="M1017 558h98v24c0 12-9 21-21 21h-56c-12 0-21-9-21-21z" fill="#fff" stroke="#171919" stroke-width="6" stroke-linejoin="round"/>
    <ellipse cx="1066" cy="558" rx="47" ry="9" fill="#6f4e37" stroke="#171919" stroke-width="5"/>
  </g>

  <!-- 文字在人物前方；只有「無」字最下方中間兩點被遮罩移除。 -->
  <g fill="#171919" stroke="#171919" stroke-width="8" stroke-linejoin="round" paint-order="stroke fill">
    <path d="M326.32 378.654Q313.736 378.654 313.736 368.072Q313.736 357.49 326.32 357.49H382.376Q395.246 357.49 395.246 368.072Q395.246 378.654 382.376 378.654ZM417.554 486.762Q405.828 486.762 405.828 475.608Q405.828 470.746 420.986 462.166Q442.722 450.44 452.15999999999997 428.132L428.994 416.12Q418.984 410.972 418.984 406.11Q418.984 396.672 428.994 396.672Q432.426 396.672 457.594 409.256Q459.024 402.678 459.739 397.53Q460.45399999999995 392.382 460.74 382.086H420.414Q407.83 382.086 407.83 371.79Q407.83 361.208 420.414 361.208H530.524Q543.108 361.208 549.6859999999999 366.07000000000005Q556.2639999999999 370.932 555.978 381.8Q555.692 388.95000000000005 555.12 397.244Q554.548 405.538 553.976 413.54600000000005Q550.544 455.302 544.824 468.458Q537.674 484.188 507.35799999999995 484.188Q493.916 484.188 493.916 472.17600000000004Q493.916 460.736 515.0799999999999 460.45000000000005Q526.2339999999999 460.164 528.5219999999999 442.432Q530.524 424.986 531.3820000000001 411.973Q532.24 398.96000000000004 532.24 390.38Q532.24 382.086 523.088 382.086H481.904Q480.474 399.53200000000004 476.756 418.98Q507.644 435.568 507.644 443.29Q507.644 454.158 496.49 454.158Q492.486 454.158 469.892 439.0Q465.316 448.72400000000005 458.881 457.16100000000006Q452.446 465.598 443.866 472.462Q426.41999999999996 486.762 417.554 486.762ZM319.17 416.406Q306.872 416.406 306.872 405.824Q306.872 395.242 319.17 395.242H390.384Q402.682 395.242 402.682 405.824Q402.682 416.406 390.384 416.406ZM326.606 452.442Q314.308 452.442 314.308 442.146Q314.308 437.284 318.741 434.567Q323.174 431.85 329.466 431.85H380.374Q392.672 431.85 392.672 442.146Q392.672 452.442 380.374 452.442ZM326.606 490.48Q314.308 490.48 314.308 480.184Q314.308 469.88800000000003 326.606 469.88800000000003H380.374Q392.672 469.88800000000003 392.672 480.184Q392.672 490.48 380.374 490.48ZM494.48799999999994 520.224Q489.34 520.224 477.614 506.496Q467.89 494.198 467.89 492.196Q467.89 483.044 478.472 483.044Q480.76 483.044 484.764 485.618Q488.768 488.192 494.202 493.91200000000003Q505.356 505.06600000000003 505.356 510.214Q505.356 520.224 494.48799999999994 520.224ZM488.768 594.012Q456.45 594.012 449.586 590.294Q441.29200000000003 585.432 441.29200000000003 570.56V512.788Q441.29200000000003 499.632 452.15999999999997 499.632Q462.456 499.632 462.456 512.788V563.696Q462.456 570.846 465.316 571.99Q466.746 572.562 470.75 573.4200000000001Q474.754 574.278 481.046 573.992Q498.206 572.562 499.922 569.416Q502.21 564.84 502.21 553.686Q502.21 542.246 512.506 542.246Q523.374 542.246 523.374 554.258Q523.374 580.284 514.508 587.434Q506.5 594.012 488.768 594.012ZM337.474 590.58Q314.594 590.58 314.594 568.272V528.518Q314.594 505.924 337.474 505.924H369.506Q392.38599999999997 505.924 392.38599999999997 528.518V567.7Q392.38599999999997 590.58 369.506 590.58ZM406.686 582.286Q396.676 582.286 396.676 572.848Q396.676 570.846 399.25 564.84Q402.96799999999996 555.402 405.399 545.106Q407.83 534.81 408.974 524.228Q410.69 509.928 419.27 509.928Q428.422 509.928 428.422 519.08Q428.422 527.946 426.134 540.101Q423.846 552.256 418.984 568.272Q415.26599999999996 582.286 406.686 582.286ZM552.546 577.138Q545.396 577.138 542.25 569.416Q536.53 555.116 531.382 544.248Q526.2339999999999 533.38 521.944 525.658Q519.656 521.654 519.656 519.366Q519.656 509.928 529.6659999999999 509.928Q535.672 509.928 539.962 516.792Q563.986 554.83 563.986 565.412Q563.986 577.138 552.546 577.138ZM341.478 571.418H365.502Q371.794 571.418 372.366 564.554V531.95Q372.366 525.372 365.502 524.8H341.478Q334.9 524.8 334.328 531.95V564.554Q334.328 571.418 341.478 571.418Z"/>
    <path d="M733.838 412.97400000000005Q712.96 413.26 698.946 412.259Q684.932 411.25800000000004 678.068 410.4Q668.344 408.97 663.768 403.39300000000003Q659.192 397.81600000000003 659.192 388.95000000000005V357.776Q659.192 344.906 670.346 344.906Q682.072 344.906 681.5 357.776Q681.5 359.778 681.357 361.637Q681.2139999999999 363.496 681.2139999999999 365.212Q731.264 362.35200000000003 763.582 358.34800000000007Q795.9 354.34400000000005 815.92 349.76800000000003Q821.64 348.338 824.7860000000001 350.91200000000003Q827.932 353.486 828.504 357.776Q829.076 362.63800000000003 826.645 365.49800000000005Q824.2139999999999 368.358 819.352 369.216Q801.62 372.362 777.1669999999999 375.07900000000006Q752.7139999999999 377.79600000000005 721.254 379.51200000000006L681.2139999999999 381.8Q681.2139999999999 383.516 681.357 384.946Q681.5 386.376 681.5 387.52Q681.786 389.808 682.93 391.238Q684.074 392.668 687.506 393.24Q694.084 394.384 709.242 394.956Q724.4 395.528 747.852 395.242Q761.294 394.956 774.8789999999999 394.956Q788.4639999999999 394.956 801.906 394.67Q814.204 394.098 820.067 392.81100000000004Q825.93 391.524 827.932 388.95Q829.934 386.376 829.934 382.944Q829.934 377.22400000000005 833.0799999999999 374.65000000000003Q836.226 372.076 840.802 372.076Q846.236 372.076 849.239 375.365Q852.242 378.654 852.242 383.516Q852.242 402.39200000000005 840.516 407.54Q834.51 410.11400000000003 822.355 411.25800000000004Q810.2 412.40200000000004 791.038 412.688Q776.738 412.688 762.438 412.688Q748.1379999999999 412.688 733.838 412.97400000000005ZM705.81 531.95Q694.37 531.95 689.222 526.087Q684.074 520.224 684.646 507.068V449.29600000000005Q684.646 436.14 689.508 429.991Q694.37 423.842 705.81 424.70000000000005H824.786Q836.512 424.70000000000005 841.66 430.56300000000005Q846.808 436.42600000000004 846.236 449.29600000000005V507.068Q846.236 520.224 841.374 526.373Q836.512 532.522 824.786 531.95ZM662.338 561.122Q651.184 561.122 645.893 555.545Q640.602 549.968 641.46 537.67V446.722Q641.46 432.994 652.9 432.994Q664.054 432.994 664.054 446.722V531.664Q664.054 541.388 673.492 541.96H865.3979999999999Q874.2639999999999 541.96 874.2639999999999 551.398Q874.2639999999999 561.122 865.3979999999999 561.122ZM706.096 454.73H824.5V449.29600000000005Q824.5 441.574 817.636 441.288H712.96Q706.096 441.288 706.096 449.29600000000005ZM706.096 484.76H824.5V470.174H706.096ZM712.96 515.648H817.636Q824.5 515.648 824.5 507.068V499.918H706.096V507.068Q706.096 514.79 712.96 515.648ZM637.456 601.162Q626.874 602.592 626.016 591.152Q625.158 581.714 637.17 580.284Q661.194 577.71 679.498 573.4200000000001Q697.802 569.13 706.096 565.984L713.532 563.41Q718.108 561.98 721.683 565.412Q725.258 568.844 724.972 574.278Q724.686 580.284 707.812 587.005Q690.938 593.726 656.332 598.588ZM862.538 600.018Q856.246 599.446 843.376 597.158Q830.506 594.87 814.776 591.438Q783.316 584.288 777.882 579.712Q774.736 577.424 774.736 573.134Q774.736 568.272 778.3109999999999 565.6980000000001Q781.886 563.124 785.604 563.982L789.608 564.84Q803.908 568.844 823.928 572.562Q843.948 576.28 865.3979999999999 578.854Q875.694 579.998 874.836 589.15Q873.406 600.876 862.538 600.018Z"/>
    <path d="M1364.122 596.3Q1352.968 596.3 1352.968 584.86Q1352.968 578.282 1360.69 573.134Q1391.864 552.828 1396.44 521.654Q1375.276 532.522 1364.408 537.8130000000001Q1353.54 543.104 1350.68 543.104Q1340.956 543.104 1340.956 531.95Q1340.956 523.942 1356.114 518.222V391.81Q1356.114 381.514 1360.69 374.93600000000004Q1365.266 368.358 1375.848 365.49800000000005Q1387.288 362.63800000000003 1401.302 355.202Q1407.594 352.05600000000004 1411.455 350.197Q1415.316 348.338 1416.746 348.338Q1428.472 348.338 1428.472 359.492Q1428.472 369.216 1385.858 384.374Q1376.706 387.52 1376.42 395.242V510.214L1398.728 500.776Q1399.586 492.76800000000003 1399.8719999999998 484.188Q1400.158 475.608 1400.301 463.31Q1400.444 451.012 1400.444 431.85V408.97Q1400.444 395.528 1410.454 395.528Q1420.75 395.528 1420.75 406.968V427.274Q1420.75 460.164 1419.463 484.04499999999996Q1418.176 507.926 1415.888 523.0840000000001Q1413.886 538.528 1408.452 551.684Q1403.018 564.84 1393.866 575.136Q1384.4279999999999 586.004 1377.135 591.152Q1369.842 596.3 1364.122 596.3ZM1328.944 601.448Q1319.506 601.448 1319.506 590.58V547.394Q1280.324 565.698 1267.74 565.698Q1257.444 565.698 1257.444 554.258Q1257.444 545.392 1273.46 541.674V377.51H1266.596Q1257.158 377.51 1257.158 367.5Q1257.158 357.204 1266.596 357.204H1345.246Q1355.256 357.204 1355.256 367.21400000000006Q1355.256 377.51 1345.246 377.51H1338.096V590.58Q1338.096 601.448 1328.944 601.448ZM1443.63 601.162Q1433.048 601.162 1433.048 589.436V382.372Q1433.048 360.922 1454.784 360.922H1480.81Q1502.546 360.922 1502.546 382.658V545.964Q1502.546 559.12 1496.54 565.412Q1490.534 571.704 1477.092 570.846H1468.798Q1459.36 570.846 1459.36 560.264Q1459.36 549.396 1468.798 549.396H1475.09Q1481.668 549.396 1482.24 542.532V387.80600000000004Q1482.24 381.8 1475.662 381.228H1460.79Q1454.784 381.228 1454.212 387.80600000000004V589.436Q1454.212 601.162 1443.63 601.162ZM1293.194 416.12H1319.506V377.51H1293.194ZM1293.194 473.034H1319.506V436.42600000000004H1293.194ZM1293.194 536.812 1319.506 528.518V493.34000000000003H1293.194Z"/>
    <path d="M962.892 534.81Q950.308 534.81 950.308 524.228Q950.308 513.646 962.892 513.646H984.342V464.74H956.028Q943.158 464.74 943.158 454.444Q943.158 443.576 956.028 443.576H984.342V402.96400000000006Q961.748 428.704 953.168 428.704Q943.158 428.704 943.158 417.55Q943.158 415.262 945.875 411.544Q948.592 407.826 954.884 402.39200000000005Q974.904 385.232 990.92 358.92Q998.642 345.478 1006.936 345.478Q1018.09 345.478 1018.09 354.34400000000005Q1018.09 356.632 1015.659 361.63700000000006Q1013.228 366.64200000000005 1007.794 373.79200000000003H1178.822Q1192.55 373.79200000000003 1192.55 384.66Q1192.55 395.242 1179.68 395.242H1158.516V443.576H1185.686Q1198.842 443.576 1198.842 454.444Q1198.842 464.74 1185.686 464.74H1158.516V513.646H1179.108Q1191.692 513.646 1191.692 524.228Q1191.692 534.81 1179.108 534.81ZM1005.506 443.576H1035.25V395.242H1005.506ZM1055.842 443.576H1085.872V395.242H1055.842ZM1106.75 443.576H1137.3519999999999V395.242H1106.75ZM1005.506 513.646H1035.25V464.74H1005.506ZM1055.842 513.646H1085.872V464.74H1055.842ZM1106.75 513.646H1137.3519999999999V464.74H1106.75ZM1180.824 598.588Q1176.82 598.588 1174.246 596.3Q1171.672 594.012 1169.384 590.294Q1164.522 580.856 1160.518 573.134Q1156.514 565.412 1152.796 559.978Q1149.65 555.116 1149.65 552.828Q1149.65 543.39 1162.234 543.39Q1167.954 543.39 1173.674 551.97Q1193.694 580.284 1193.694 586.004Q1193.694 598.588 1180.824 598.588ZM960.604 599.16Q948.592 599.16 948.592 587.72Q948.592 586.004 950.165 583.287Q951.738 580.57 953.74 576.852Q956.886 571.132 959.889 564.983Q962.892 558.8340000000001 965.752 551.97Q969.184 543.962 976.62 543.962Q988.632 543.962 988.632 553.972Q988.632 559.692 984.4849999999999 568.844Q980.338 577.996 972.902 590.294Q967.754 599.16 960.604 599.16ZM1107.894 597.444Q1099.028 597.444 1095.31 585.718Q1091.592 573.706 1087.588 564.268Q1084.728 558.262 1084.728 555.402Q1084.728 544.82 1095.882 544.82Q1102.746 544.82 1107.036 553.4Q1119.62 579.426 1119.62 585.432Q1119.62 597.444 1107.894 597.444ZM1042.686 597.73Q1032.676 597.73 1030.388 587.434L1023.524 557.404Q1023.524 546.822 1034.6779999999999 546.822Q1038.682 546.822 1041.685 550.111Q1044.688 553.4 1046.9759999999999 559.406Q1050.98 569.416 1052.696 576.423Q1054.412 583.43 1054.412 586.004Q1054.412 597.73 1042.686 597.73Z" mask="url(#remove-middle-dots)"/>
  </g>

  <!-- 細蒸氣放在字面前方，確保仍能辨識為熱咖啡。 -->
  <g fill="none" stroke="#8b8177" stroke-width="13" stroke-linecap="round" opacity=".75">
    <path d="M1044 541c-14-15 9-27-2-41s14-25 3-42"/>
    <path d="M1090 536c10-14-9-23 2-37s-7-21 4-34"/>
  </g>
  <g fill="none" stroke="#fff" stroke-width="8" stroke-linecap="round">
    <path d="M1044 541c-14-15 9-27-2-41s14-25 3-42"/>
    <path d="M1090 536c10-14-9-23 2-37s-7-21 4-34"/>
  </g>

</svg>
